<svg xmlns="http://www.w3.org/2000/svg" width="375.844" height="303.688" viewBox="0 0 375.844 303.688">
  <g id="Layer_8" data-name="Layer 8" transform="translate(-274.41 -175.731)">
    <path id="Path_102" data-name="Path 102" d="M934.24,330.93H848.96A5.967,5.967,0,0,0,843,336.9v52.375h97.2V336.9A5.971,5.971,0,0,0,934.24,330.93Z" transform="translate(-371.215 -101.313)" fill="#f5ebdd"/>
    <path id="Path_103" data-name="Path 103" d="M907.783,303.389a2.055,2.055,0,0,1,2.052,2.052v33.009a2.055,2.055,0,0,1-2.052,2.052H874.424a2.055,2.055,0,0,1-2.048-2.052V305.437a2.055,2.055,0,0,1,2.048-2.048h33.359m0-1.389H874.424a3.44,3.44,0,0,0-3.443,3.44v33.009a3.443,3.443,0,0,0,3.443,3.44h33.359a3.44,3.44,0,0,0,3.44-3.44V305.437A3.44,3.44,0,0,0,907.783,302Z" transform="translate(-389.483 -82.426)" fill="#ffb7d5"/>
    <path id="Path_104" data-name="Path 104" d="M1060.2,413.928a2.055,2.055,0,0,1,2.052,2.052v33.012a2.055,2.055,0,0,1-2.052,2.052H1027.01a2.055,2.055,0,0,1-2.052-2.052V415.98a2.055,2.055,0,0,1,2.052-2.052H1060.2m0-1.389H1027.01a3.44,3.44,0,0,0-3.44,3.44v33.012a3.44,3.44,0,0,0,3.44,3.44H1060.2a3.44,3.44,0,0,0,3.44-3.44V415.98A3.44,3.44,0,0,0,1060.2,412.54Z" transform="translate(-489.104 -154.594)" fill="#ffb7d5"/>
    <path id="Path_105" data-name="Path 105" d="M842.3,437.579a2.055,2.055,0,0,1,2.052,2.052v21.175a2.055,2.055,0,0,1-2.052,2.052H823.44a2.055,2.055,0,0,1-2.052-2.052V439.63a2.055,2.055,0,0,1,2.052-2.052H842.3m0-1.389H823.44a3.44,3.44,0,0,0-3.44,3.44v21.175a3.44,3.44,0,0,0,3.44,3.44H842.3a3.44,3.44,0,0,0,3.44-3.44V439.63A3.44,3.44,0,0,0,842.3,436.19Z" transform="translate(-356.199 -170.035)" fill="#ffb7d5"/>
    <rect id="Rectangle_3441" data-name="Rectangle 3441" width="30.173" height="21.119" transform="translate(486.527 224.253)" fill="#ffb7d5"/>
    <rect id="Rectangle_3442" data-name="Rectangle 3442" width="44.922" height="40.899" rx="20.449" transform="translate(497.927 238.25)" fill="#3ec1f3"/>
    <path id="Path_106" data-name="Path 106" d="M891.136,388.373a1.614,1.614,0,0,0-2.281,0l-.347.347-.347-.347a1.614,1.614,0,0,0-2.281,2.281l.347.347,2.281,2.281L890.786,391l.347-.347A1.614,1.614,0,0,0,891.136,388.373Z" transform="translate(-398.933 -138.508)" fill="#ffb7d5"/>
    <rect id="Rectangle_3443" data-name="Rectangle 3443" width="17.766" height="17.096" rx="8.548" transform="translate(508.654 250.149)" fill="#4756df"/>
    <path id="Path_107" data-name="Path 107" d="M991.766,403.814l6.294,5.016a1.642,1.642,0,0,0,2.666-1.284V397.51a1.642,1.642,0,0,0-2.666-1.284l-6.294,5.02a1.642,1.642,0,0,0,0,2.569Z" transform="translate(-467.936 -143.709)" fill="#4756df"/>
    <path id="Path_108" data-name="Path 108" d="M920.076,302H825.261A11.257,11.257,0,0,0,814,313.244V379.23a11.257,11.257,0,0,0,11.257,11.257h94.815A11.257,11.257,0,0,0,931.33,379.23V313.244A11.257,11.257,0,0,0,920.076,302Zm1.187,68.385h-97.2V318.01a5.967,5.967,0,0,1,5.967-5.967h85.28a5.971,5.971,0,0,1,5.971,5.967Z" transform="translate(-352.282 -82.426)" fill="#4756df"/>
    <path id="Path_109" data-name="Path 109" d="M922.256,515.38h18.1a6.707,6.707,0,0,1,6.707,6.707v20.449a6.707,6.707,0,0,1-6.707,6.7H906.167a2.347,2.347,0,0,1-2.347-2.347h0a2.347,2.347,0,0,1,2.347-2.347h9.372V522.087a6.707,6.707,0,0,1,6.717-6.707Z" transform="translate(-410.923 -221.735)" fill="#4756df"/>
    <circle id="Ellipse_1147" data-name="Ellipse 1147" cx="4.19" cy="4.19" r="4.19" transform="translate(516.197 293.815)" fill="#3ec1f3"/>
    <circle id="Ellipse_1148" data-name="Ellipse 1148" cx="1.34" cy="1.34" r="1.34" transform="translate(519.047 223.247)" fill="#30242a"/>
    <line id="Line_27" data-name="Line 27" x1="31.589" transform="translate(504.554 308.731)" fill="none" stroke="#30242a" stroke-miterlimit="10" stroke-width="4"/>
    <path id="Path_110" data-name="Path 110" d="M690.573,612.92H854.359a6.943,6.943,0,0,1,6.943,6.943V763.1H683.63V619.863A6.943,6.943,0,0,1,690.573,612.92Z" transform="translate(-267.167 -285.416)" fill="#ffb7d5"/>
    <path id="Path_111" data-name="Path 111" d="M825.1,657.769v24.375h-96.62V657.769H825.1m1.389-1.389h-99.4v27.153h99.4Z" transform="translate(-295.541 -313.79)" fill="#a15842"/>
    <circle id="Ellipse_1149" data-name="Ellipse 1149" cx="4.19" cy="4.19" r="4.19" transform="translate(477.058 351.976)" fill="#a15842"/>
    <path id="Path_112" data-name="Path 112" d="M825.1,779.448v75h-96.62v-75H825.1m1.389-1.388h-99.4v77.775h99.4Z" transform="translate(-295.541 -393.231)" fill="#a15842"/>
    <circle id="Ellipse_1150" data-name="Ellipse 1150" cx="4.19" cy="4.19" r="4.19" transform="translate(462.641 419.525)" fill="#a15842"/>
    <circle id="Ellipse_1151" data-name="Ellipse 1151" cx="4.19" cy="4.19" r="4.19" transform="translate(491.474 419.525)" fill="#a15842"/>
    <line id="Line_28" data-name="Line 28" y2="76.435" transform="translate(481.497 385.499)" fill="none" stroke="#a15842" stroke-miterlimit="10" stroke-width="4"/>
    <rect id="Rectangle_3444" data-name="Rectangle 3444" width="33.019" height="120.013" transform="translate(546.033 342.59)" fill="#a15842"/>
    <line id="Line_29" data-name="Line 29" x1="33.189" transform="translate(545.862 402.595)" fill="none" stroke="#ffb7d5" stroke-miterlimit="10" stroke-width="4"/>
    <path id="Path_113" data-name="Path 113" d="M315.633,612.92H432.154a6.943,6.943,0,0,1,6.943,6.943V763.1H308.69V619.863A6.943,6.943,0,0,1,315.633,612.92Z" transform="translate(-22.38 -285.416)" fill="#3ec1f3"/>
    <rect id="Rectangle_3445" data-name="Rectangle 3445" width="90.514" height="92.861" transform="translate(306.256 369.743)" fill="#30242a"/>
    <path id="Path_114" data-name="Path 114" d="M396.77,879.795H306.256L274.41,814.76h90.511Z" transform="translate(0 -417.191)" fill="#4756df"/>
    <path id="Path_115" data-name="Path 115" d="M397.663,599.68H366.15l3.353-7.04h24.806Z" transform="translate(-59.894 -272.176)" fill="#30242a"/>
    <path id="Path_116" data-name="Path 116" d="M567.632,599.68H536.12l3.353-7.04h24.806Z" transform="translate(-170.863 -272.176)" fill="#30242a"/>
    <circle id="Ellipse_1152" data-name="Ellipse 1152" cx="6.203" cy="6.203" r="6.203" transform="translate(306.256 342.587)" fill="#f5ebdd"/>
    <line id="Line_30" data-name="Line 30" x2="5.03" transform="translate(305.586 348.79)" fill="none" stroke="#30242a" stroke-linecap="round" stroke-miterlimit="10" stroke-width="4"/>
    <circle id="Ellipse_1153" data-name="Ellipse 1153" cx="6.203" cy="6.203" r="6.203" transform="translate(332.29 342.587)" fill="#f5ebdd"/>
    <line id="Line_31" data-name="Line 31" y2="5.026" transform="translate(338.494 341.92)" fill="none" stroke="#30242a" stroke-linecap="round" stroke-miterlimit="10" stroke-width="4"/>
    <circle id="Ellipse_1154" data-name="Ellipse 1154" cx="6.203" cy="6.203" r="6.203" transform="translate(358.329 342.587)" fill="#f5ebdd"/>
    <line id="Line_32" data-name="Line 32" y2="5.026" transform="translate(364.532 341.92)" fill="none" stroke="#30242a" stroke-linecap="round" stroke-miterlimit="10" stroke-width="4"/>
    <circle id="Ellipse_1155" data-name="Ellipse 1155" cx="6.203" cy="6.203" r="6.203" transform="translate(384.364 342.587)" fill="#f5ebdd"/>
    <line id="Line_33" data-name="Line 33" y2="5.026" transform="translate(390.567 341.92)" fill="none" stroke="#30242a" stroke-linecap="round" stroke-miterlimit="10" stroke-width="4"/>
    <rect id="Rectangle_3446" data-name="Rectangle 3446" width="51.625" height="4.356" rx="2.178" transform="translate(302.149 409.972)" fill="#30242a"/>
    <path id="Path_117" data-name="Path 117" d="M680.766,226.282c-6.182,3.975-2.01,12.4,3.687,12.736a22.685,22.685,0,0,1,.673,16.093H693.8l.031-3.655c7.935,1.975,10.858-1.142,12.4-3.957,1.736-3.194,1.222-6.182.628-10.067,0,0,2.836-1.128,2.621-2.84-.174-1.389-3.2-1.9-3.2-1.9-.045-.611-.076-1.243-.094-1.9a47.02,47.02,0,0,0-.382-5.207,68.624,68.624,0,0,1-14.965,5.394S685.459,223.262,680.766,226.282Z" transform="translate(-263.297 -32.535)" fill="#a15842"/>
    <path id="Path_118" data-name="Path 118" d="M917.9,549.786c3.634,1.388,6.314-.955,5.644-2.3-.437-.875-13.014-10.31-25.993-19.9L882.68,546.13c3.412,1.309,5.662,2.048,5.662,2.048a33.731,33.731,0,0,0,9.053,9.05s5.7,13.743,8.713,13.41c2.027-.226-.67-8.046-1.34-11.4,0,0,6.707,11.4,11.063,11.4,1.007,0,1.934-.694,2.01-2.347,0,0,2.211.608,3.02-1.007a5.525,5.525,0,0,0,.347-2.347,2.77,2.77,0,0,0,2.683-.67C925.488,562.338,921.989,555.958,917.9,549.786Z" transform="translate(-397.121 -229.707)" fill="#a15842"/>
    <path id="Path_119" data-name="Path 119" d="M580.154,420.77q-.264-.229-.594-.5C579.754,420.437,579.949,420.6,580.154,420.77Z" transform="translate(-199.223 -159.641)" fill="#ff7235"/>
    <path id="Path_120" data-name="Path 120" d="M656.564,364.959s-15.468-35.6-21.789-43.915c-6.377-8.383-19.519-7.925-19.519-7.925l.021-2.468H606.6s9.373,18.773-8.383,26.819c-6.7,21.789-27.489,16.089-32.516,11.733-2.013,3.687-12.07,20.113-6.707,32.516,4.693,9.72,21.456,7.71,21.456,7.71l3.353-7.04h29.006L623.7,358.6l3.7,9.036a65.8,65.8,0,0,0,14.75,21.456c7.175,6.713,20.585,12.465,28.2,15.385l14.868-18.523C671.116,375.546,656.564,364.959,656.564,364.959Z" transform="translate(-184.779 -88.073)" fill="#ff7235"/>
    <line id="Line_34" data-name="Line 34" x1="6.904" y2="3.148" transform="translate(389.98 279.1)" fill="none" stroke="#30242a" stroke-linecap="round" stroke-linejoin="round" stroke-width="4"/>
    <line id="Line_35" data-name="Line 35" x1="4.502" y1="30.322" transform="translate(394.864 265.336)" fill="none" stroke="#30242a" stroke-linecap="round" stroke-linejoin="round" stroke-width="4"/>
    <path id="Path_121" data-name="Path 121" d="M716.95,472.535l13.576.014,1.007-14.75-3.687-9.05Z" transform="translate(-288.921 -178.235)" fill="#ffbe21"/>
    <path id="Path_122" data-name="Path 122" d="M618.888,178.772a18.543,18.543,0,0,0-14.666-1.9c-10.98,3.419-13.087,12.927-14.538,19.224-1.007,4.356-2.013,9.373-2.013,9.373s-18.773,1.34-16.759,20.449c-9.98,2.281-20.439,15.711-12.417,28.545a26.589,26.589,0,0,0,5.453,6.155q.33.271.594.5c5.026,4.356,25.813,10.067,32.516-11.733,17.77-8.046,8.383-26.819,8.383-26.819a22.685,22.685,0,0,0-.673-16.093c-5.7-.347-9.869-8.762-3.687-12.736,4.693-3.02,10.067,4.724,10.067,4.724a68.626,68.626,0,0,0,14.965-5.394v-.038c0-.01,5.339-2.576,6.807-7.338C635.609,176.985,624.546,172.291,618.888,178.772Z" transform="translate(-183.611)" fill="#ffbe21"/>
    <path id="Path_123" data-name="Path 123" d="M743.942,440.663c-1.9-4.468-5.158-12.4-7.192-18.953" transform="translate(-301.848 -160.581)" fill="none" stroke="#30242a" stroke-linecap="round" stroke-linejoin="round" stroke-width="4"/>
    <path id="Path_124" data-name="Path 124" d="M942.674,614.692l-1.194-2.742" transform="translate(-435.51 -284.783)" fill="none" stroke="#30242a" stroke-linecap="round" stroke-linejoin="round" stroke-width="4"/>
    <path id="Path_125" data-name="Path 125" d="M964.414,617.4c-2.18-2.843-6.707-9.213-10.414-14.142" transform="translate(-443.684 -279.11)" fill="none" stroke="#30242a" stroke-linecap="round" stroke-linejoin="round" stroke-width="4"/>
    <path id="Path_126" data-name="Path 126" d="M977.085,607.631c-2.666-3.919-6.752-10.067-9.525-14.021" transform="translate(-452.537 -272.809)" fill="none" stroke="#30242a" stroke-linecap="round" stroke-linejoin="round" stroke-width="4"/>
    <path id="Path_127" data-name="Path 127" d="M978.576,579.547c-1.253-1.923-2.659-4.016-4.166-6.137" transform="translate(-457.009 -259.621)" fill="none" stroke="#30242a" stroke-linecap="round" stroke-linejoin="round" stroke-width="4"/>
    <path id="Path_128" data-name="Path 128" d="M740.47,183.73c.771.545,1.632,1.18,2.4,1.819" transform="translate(-304.276 -5.211)" fill="none" stroke="#ca7358" stroke-linecap="round" stroke-linejoin="round" stroke-width="4"/>
    <line id="Line_36" data-name="Line 36" x1="0.83" y2="3.982" transform="translate(402.383 205.855)" fill="none" stroke="#ca7358" stroke-linecap="round" stroke-linejoin="round" stroke-width="4"/>
    <path id="Path_129" data-name="Path 129" d="M597.65,322.08a23.575,23.575,0,0,0,3.03,7.765" transform="translate(-211.034 -95.536)" fill="none" stroke="#ca7358" stroke-linecap="round" stroke-linejoin="round" stroke-width="4"/>
    <path id="Path_130" data-name="Path 130" d="M716.4,298.683a22.458,22.458,0,0,1-3.839-1.763" transform="translate(-286.055 -79.109)" fill="none" stroke="#30242a" stroke-linecap="round" stroke-linejoin="round" stroke-width="4"/>
    <path id="Path_131" data-name="Path 131" d="M688.817,724l-.1.031Z" transform="translate(-270.49 -357.937)" fill="none"/>
    <path id="Path_132" data-name="Path 132" d="M690.674,723.25h-.024Z" transform="translate(-271.75 -357.447)" fill="none"/>
    <path id="Path_133" data-name="Path 133" d="M687.072,724.49h0Z" transform="translate(-269.387 -358.257)" fill="none"/>
    <path id="Path_134" data-name="Path 134" d="M679.666,724.61h0Z" transform="translate(-264.543 -358.335)" fill="none"/>
    <path id="Path_135" data-name="Path 135" d="M693.89,721.34Z" transform="translate(-273.866 -356.2)" fill="none"/>
    <path id="Path_136" data-name="Path 136" d="M681.292,724.86h0Z" transform="translate(-265.555 -358.498)" fill="none"/>
    <path id="Path_137" data-name="Path 137" d="M685.069,724.8l-.139.017Z" transform="translate(-268.016 -358.459)" fill="none"/>
    <path id="Path_138" data-name="Path 138" d="M692.3,722.37l-.031.021Z" transform="translate(-272.808 -356.873)" fill="none"/>
    <path id="Path_139" data-name="Path 139" d="M730.65,715.13a6.2,6.2,0,0,1-11.063,0,6.2,6.2,0,0,1-11.063,0,6.193,6.193,0,0,1-11.06,0,6.275,6.275,0,0,1-.864,1.274h0c9.244,24.927,3.544,37,.864,61.133a102.453,102.453,0,0,0-.465,15.42h32.071c1.166-10.164,3.565-23.893,4.936-40.916a12.07,12.07,0,0,1,.667-24.112h.347c0-3.249-.1-6.439-.264-9.567A6.207,6.207,0,0,1,730.65,715.13Z" transform="translate(-275.635 -352.146)" fill="#f5ebdd"/>
    <path id="Path_140" data-name="Path 140" d="M544.787,715.13a6.2,6.2,0,0,1-11.063,0,6.2,6.2,0,0,1-11.063,0,6.193,6.193,0,0,1-9.484,1.979c-3.124,9.206-6.724,12.174-22.7,36.626a130.385,130.385,0,0,0-10.789,20.39L508.5,788.77c6.009-10.011,15.149-22.182,22.772-34.366a12.066,12.066,0,0,1,11.108-21.39c2.583-6.141,4.44-11.518,5.6-14.927h0a6.228,6.228,0,0,1-3.2-2.958Z" transform="translate(-134.021 -352.146)" fill="#f5ebdd"/>
    <path id="Path_141" data-name="Path 141" d="M614.056,589.317c.2-.024.4-.056.59-.1h.042q.281-.066.552-.156l.09-.024c.191-.069.382-.142.566-.229h.024c.184-.087.347-.181.538-.285l.031-.021a6.023,6.023,0,0,0,.524-.347h0a6.116,6.116,0,0,0,.941-.882,6.283,6.283,0,0,0,.864-1.274,6.193,6.193,0,0,0,11.06,0,6.2,6.2,0,0,0,11.063,0A6.2,6.2,0,0,0,652,586a6.207,6.207,0,0,0,4.1,3.235,200.866,200.866,0,0,0-3.51-28.034,19.3,19.3,0,0,1-14.989-2.017c-9.619-5.5-12.028-32.384-12.583-41.906H596.037c-16.763,15.086-16.426,60.008-19.613,69.857-.087.271-.177.531-.264.791a6.193,6.193,0,0,0,9.484-1.979,6.2,6.2,0,0,0,11.063,0,6.2,6.2,0,0,0,11.063,0,6.228,6.228,0,0,0,3.183,2.944,6.119,6.119,0,0,0,1.118.347h.055c.16.031.319.056.483.073h.132c.184,0,.372.028.559.028a4.218,4.218,0,0,0,.618-.031Z" transform="translate(-197.003 -222.976)" fill="#30242a"/>
    <path id="Path_142" data-name="Path 142" d="M702.908,971.839H730.4s.986-6.5,4.468-10.74c-2.718-1.968-4.926-4.412-5.474-8.369-.469-3.378-.2-7.863.43-13.41H697.75A148.529,148.529,0,0,0,702.908,971.839Z" transform="translate(-276.386 -498.513)" fill="#ff7235"/>
    <path id="Path_143" data-name="Path 143" d="M450.7,916.622l-.864-.43a2.162,2.162,0,0,0-.267-.111L475.3,929.229s3.818-5.235,8.737-7.373a20.106,20.106,0,0,1-1.489-4.228c-.944-4.166,1.8-10.456,6.286-17.933L460.022,885.05A138.524,138.524,0,0,0,450.7,916.622Z" transform="translate(-114.357 -463.082)" fill="#ff7235"/>
    <path id="Path_144" data-name="Path 144" d="M706.767,1012.8h-.84a2.18,2.18,0,1,0,0,4.356h46.1c0-9.025-7.727-11.059-13.3-15.1-3.471,4.242-4.468,10.74-4.468,10.74Z" transform="translate(-280.244 -539.474)" fill="#30242a"/>
    <path id="Path_145" data-name="Path 145" d="M470.039,987.4,444.31,974.248a2.1,2.1,0,0,0-1.628,3.871l40.961,20.807c3.933-8.147-1.691-12.2-4.881-18.9C473.858,982.163,470.039,987.4,470.039,987.4Z" transform="translate(-109.096 -521.24)" fill="#30242a"/>
    <path id="Path_146" data-name="Path 146" d="M771.52,764.069a12.067,12.067,0,0,0,11.4,12.049c.547-6.842.933-14.232,1-22.105v-2h-.347A12.07,12.07,0,0,0,771.52,764.069Z" transform="translate(-324.548 -376.224)" fill="#ffbe21"/>
    <path id="Path_147" data-name="Path 147" d="M611.2,775.656a12.056,12.056,0,0,0,5.929,10.386c.837-1.34,1.659-2.68,2.454-4.016a142.1,142.1,0,0,0,8.644-17.374,12.07,12.07,0,0,0-17.009,11Z" transform="translate(-219.88 -383.787)" fill="#ffbe21"/>
    <path id="Path_148" data-name="Path 148" d="M729.5,559.186a19.3,19.3,0,0,0,15,1.965c-5.207-26.545-14-43.87-14-43.87H716.92C717.475,526.812,719.884,553.7,729.5,559.186Z" transform="translate(-288.901 -222.976)" fill="#ffbe21"/>
    <path id="Path_149" data-name="Path 149" d="M746.844,266.584a2.709,2.709,0,0,1-3.374-1.284" transform="translate(-306.235 -58.466)" fill="none" stroke="#30242a" stroke-linecap="round" stroke-linejoin="round" stroke-width="4"/>
    <circle id="Ellipse_1156" data-name="Ellipse 1156" cx="1.007" cy="1.007" r="1.007" transform="translate(438.252 198.774)" fill="#30242a"/>
    <line id="Line_37" data-name="Line 37" x2="3.35" y2="2.347" transform="translate(420.153 199.444)" fill="none" stroke="#30242a" stroke-linecap="round" stroke-linejoin="round" stroke-width="4"/>
    <line id="Line_38" data-name="Line 38" x2="42.909" transform="translate(398.697 294.315)" fill="none" stroke="#30242a" stroke-linecap="round" stroke-miterlimit="10" stroke-width="4"/>
    <path id="Path_150" data-name="Path 150" d="M667.93,520.21s7.852,11.226,4.166,12.438C668.687,533.765,668.017,525.382,667.93,520.21Z" transform="translate(-256.917 -224.889)" fill="none" stroke="#a15842" stroke-linecap="round" stroke-linejoin="round" stroke-width="4"/>
    <path id="Path_151" data-name="Path 151" d="M653.151,520.21s-4.027,10.067-7.043,8.38C644.143,527.5,649.125,522.567,653.151,520.21Z" transform="translate(-242.382 -224.889)" fill="none" stroke="#a15842" stroke-linecap="round" stroke-linejoin="round" stroke-width="4"/>
    <rect id="Rectangle_3447" data-name="Rectangle 3447" width="58.332" height="4.356" rx="2.178" transform="translate(293.1 292.638)" fill="#30242a"/>
    <path id="Path_152" data-name="Path 152" d="M369.4,494.91c-15.756,0-22.8-11.4-22.8-11.4v28.145a9.737,9.737,0,0,0,9.72,9.72h26.115a9.737,9.737,0,0,0,9.737-9.72V483.51S385.149,494.91,369.4,494.91Z" transform="translate(-47.131 -200.928)" fill="#ffb7d5"/>
    <path id="Path_153" data-name="Path 153" d="M369.4,494.91c15.753,0,22.793-11.4,22.793-11.4H346.6S353.64,494.91,369.4,494.91Z" transform="translate(-47.131 -200.928)" fill="#a15842"/>
    <circle id="Ellipse_1157" data-name="Ellipse 1157" cx="4.19" cy="4.19" r="4.19" transform="translate(318.575 274.202)" fill="#30242a"/>
    <circle id="Ellipse_1158" data-name="Ellipse 1158" cx="6.203" cy="6.203" r="6.203" transform="translate(316.899 244.029)" fill="#f5ebdd"/>
    <circle id="Ellipse_1159" data-name="Ellipse 1159" cx="9.136" cy="9.136" r="9.136" transform="translate(314.073 219.56)" fill="#f5ebdd"/>
    <path id="Path_154" data-name="Path 154" d="M1229.627,809a12.9,12.9,0,0,1-23.122,0s-23.522,53.826-.4,82.131h23.924C1253.152,862.805,1229.627,809,1229.627,809Z" transform="translate(-601.633 -413.431)" fill="#3ec1f3"/>
    <path id="Path_155" data-name="Path 155" d="M1237.953,816.139a12.939,12.939,0,0,0,11.563-7.179H1226.39A12.939,12.939,0,0,0,1237.953,816.139Z" transform="translate(-621.519 -413.405)" fill="#30242a"/>
    <path id="Path_156" data-name="Path 156" d="M1246.267,947c-13.014.233-28.4,4.929-40.267,21.522" transform="translate(-608.207 -503.527)" fill="none" stroke="#f5ebdd" stroke-linecap="round" stroke-linejoin="round" stroke-width="4"/>
    <path id="Path_157" data-name="Path 157" d="M1200,904.319c8.734-2.131,25.278-4.166,41.308-.347" transform="translate(-604.29 -474.037)" fill="none" stroke="#f5ebdd" stroke-linecap="round" stroke-linejoin="round" stroke-width="4"/>
    <path id="Path_158" data-name="Path 158" d="M1289.645,986.81c-5.821.066-16.582,6.661-15.4,19.956" transform="translate(-652.706 -529.518)" fill="none" stroke="#f5ebdd" stroke-linecap="round" stroke-linejoin="round" stroke-width="4"/>
    <line id="Line_39" data-name="Line 39" x1="6.401" y2="55.975" transform="translate(617.239 342.937)" fill="none" stroke="#30242a" stroke-miterlimit="10" stroke-width="4"/>
    <line id="Line_40" data-name="Line 40" x1="8.046" y2="33.033" transform="translate(618.69 365.421)" fill="none" stroke="#30242a" stroke-miterlimit="10" stroke-width="4"/>
    <ellipse id="Ellipse_1160" data-name="Ellipse 1160" cx="3.364" cy="14.038" rx="3.364" ry="14.038" transform="translate(582.811 372.69) rotate(-66.85)" fill="#30242a"/>
    <ellipse id="Ellipse_1161" data-name="Ellipse 1161" cx="14.555" cy="3.232" rx="14.555" ry="3.232" transform="translate(620.736 382.681) rotate(-20.66)" fill="#30242a"/>
    <ellipse id="Ellipse_1162" data-name="Ellipse 1162" cx="2.503" cy="8.175" rx="2.503" ry="8.175" transform="translate(605.786 364.243) rotate(-54.06)" fill="#30242a"/>
    <line id="Line_41" data-name="Line 41" x2="15.725" y2="46.821" transform="translate(600.202 352.088)" fill="none" stroke="#30242a" stroke-miterlimit="10" stroke-width="4"/>
    <path id="Path_159" data-name="Path 159" d="M1271.25,682.594a9.258,9.258,0,1,1,12.431,12.209A17.242,17.242,0,0,0,1271.25,682.594Z" transform="translate(-650.807 -327.385)" fill="#ff7235"/>
    <path id="Path_160" data-name="Path 160" d="M1285.2,689.726a17.317,17.317,0,0,1,7.495-9.615" transform="translate(-659.914 -329.283)" fill="none" stroke="#f5ebdd" stroke-linecap="round" stroke-miterlimit="10" stroke-width="4"/>
    <path id="Path_161" data-name="Path 161" d="M1289.65,699.3a17.172,17.172,0,0,1,10.414-6.415" transform="translate(-662.819 -337.62)" fill="none" stroke="#f5ebdd" stroke-linecap="round" stroke-miterlimit="10" stroke-width="4"/>
    <path id="Path_162" data-name="Path 162" d="M1282.087,704.939a9.258,9.258,0,0,1-12.431-12.208,17.242,17.242,0,0,1,12.431,12.208Z" transform="translate(-649.213 -337.522)" fill="#ff7235"/>
    <path id="Path_163" data-name="Path 163" d="M1197.967,645.654a9.258,9.258,0,1,0-11,13.5,17.252,17.252,0,0,1,11-13.5Z" transform="translate(-591.735 -303.852)" fill="#ff7235"/>
    <path id="Path_164" data-name="Path 164" d="M1202.1,654.237a17.286,17.286,0,0,0-8.512-8.727" transform="translate(-600.105 -306.693)" fill="none" stroke="#f5ebdd" stroke-linecap="round" stroke-miterlimit="10" stroke-width="4"/>
    <path id="Path_165" data-name="Path 165" d="M1193.263,664.867a17.173,17.173,0,0,0-11.073-5.207" transform="translate(-592.662 -315.931)" fill="none" stroke="#f5ebdd" stroke-linecap="round" stroke-miterlimit="10" stroke-width="4"/>
    <path id="Path_166" data-name="Path 166" d="M1198.62,667.584a9.258,9.258,0,0,0,11-13.514,17.252,17.252,0,0,0-11,13.514Z" transform="translate(-603.389 -312.282)" fill="#ff7235"/>
    <path id="Path_167" data-name="Path 167" d="M1271.18,624.466a9.258,9.258,0,1,0-16.527,5.523A17.249,17.249,0,0,1,1271.18,624.466Z" transform="translate(-638.674 -286.774)" fill="#ff7235"/>
    <path id="Path_168" data-name="Path 168" d="M1282.12,627.271a17.3,17.3,0,0,0-2.52-11.931" transform="translate(-656.258 -286.996)" fill="none" stroke="#f5ebdd" stroke-linecap="round" stroke-miterlimit="10" stroke-width="4"/>
    <path id="Path_169" data-name="Path 169" d="M1268.981,631.5a17.186,17.186,0,0,0-6.561-10.334" transform="translate(-645.042 -290.802)" fill="none" stroke="#f5ebdd" stroke-linecap="round" stroke-miterlimit="10" stroke-width="4"/>
    <path id="Path_170" data-name="Path 170" d="M1258.41,647.1a9.258,9.258,0,0,0,16.52-5.523,17.249,17.249,0,0,0-16.52,5.523Z" transform="translate(-642.424 -303.887)" fill="#ff7235"/>
    <path id="Path_171" data-name="Path 171" d="M1210.62,655.11a17.252,17.252,0,0,0-11,13.5" transform="translate(-604.042 -312.961)" fill="none" stroke="#f5ebdd" stroke-linecap="round" stroke-miterlimit="10" stroke-width="4"/>
    <path id="Path_172" data-name="Path 172" d="M1275.132,641.388a17.249,17.249,0,0,0-16.662,5.075" transform="translate(-642.463 -303.696)" fill="none" stroke="#f5ebdd" stroke-linecap="round" stroke-miterlimit="10" stroke-width="4"/>
    <path id="Path_173" data-name="Path 173" d="M1285.3,703.985a17.253,17.253,0,0,0-12.979-11.625" transform="translate(-651.505 -337.28)" fill="none" stroke="#f5ebdd" stroke-linecap="round" stroke-miterlimit="10" stroke-width="4"/>
  </g>
</svg>
