<svg xmlns="http://www.w3.org/2000/svg" width="372.415" height="299.427" viewBox="0 0 372.415 299.427">
  <g id="Layer_7" data-name="Layer 7" transform="translate(-257.78 -141)">
    <rect id="Rectangle_3435" data-name="Rectangle 3435" width="8.113" height="137.892" transform="translate(316.689 300.741)" fill="#ffbe21"/>
    <line id="Line_3" data-name="Line 3" x1="8.116" transform="translate(316.689 302.637)" fill="none" stroke="#a15842" stroke-miterlimit="10" stroke-width="4"/>
    <path id="Path_18" data-name="Path 18" d="M303.3,884.3a12.028,12.028,0,0,1,22.714,0,12.028,12.028,0,0,1,10.693-8.05,29.967,29.967,0,0,0-3.772-5.285l-4.367-4.912a9.95,9.95,0,0,1-1.321-11.34l3.706-6.888h0a22.952,22.952,0,0,1-32.373,0h-.017l3.71,6.888a9.943,9.943,0,0,1-1.361,11.34l-4.364,4.892a30.087,30.087,0,0,0-3.782,5.285A12.031,12.031,0,0,1,303.3,884.3Z" transform="translate(-23.431 -473.331)" fill="#4756df"/>
    <path id="Path_19" data-name="Path 19" d="M329.614,979.3a12.027,12.027,0,0,0-11.356,8.072,12.024,12.024,0,0,0-22.714,0,12.034,12.034,0,0,0-14.363-7.693,29.919,29.919,0,0,0,8.589,20.329h34.418a29.919,29.919,0,0,0,8.589-20.283A11.964,11.964,0,0,0,329.614,979.3Z" transform="translate(-15.67 -561.38)" fill="#4756df"/>
    <path id="Path_20" data-name="Path 20" d="M326.477,854.539a23.8,23.8,0,0,0,16.187-6.679H310.29A23.85,23.85,0,0,0,326.477,854.539Z" transform="translate(-35.164 -473.358)" fill="#30242a"/>
    <path id="Path_21" data-name="Path 21" d="M295.539,956.919a12.024,12.024,0,0,1,22.714,0,12.024,12.024,0,0,1,14.535-7.647,29.961,29.961,0,0,0-3.835-15.436,12.027,12.027,0,0,0-10.693,8.05,12.028,12.028,0,0,0-22.714,0,12.031,12.031,0,0,0-10.534-8.04,29.955,29.955,0,0,0-3.829,15.38,12.034,12.034,0,0,1,14.363,7.693Z" transform="translate(-15.666 -530.921)" fill="#3ec1f3"/>
    <path id="Path_22" data-name="Path 22" d="M366.55,806.872c.661-4.043,3.663-20.071,11.215-28.782" transform="translate(-72.839 -426.636)" fill="none" stroke="#30242a" stroke-linecap="round" stroke-miterlimit="10" stroke-width="4"/>
    <path id="Path_23" data-name="Path 23" d="M345.855,783.289c-.049-4.592-.522-27.137-5-40.589" transform="translate(-55.629 -402.936)" fill="none" stroke="#30242a" stroke-linecap="round" stroke-miterlimit="10" stroke-width="4"/>
    <ellipse id="Ellipse_1132" data-name="Ellipse 1132" cx="13.098" cy="2.947" rx="13.098" ry="2.947" transform="translate(295.733 364.457) rotate(-23.75)" fill="#30242a"/>
    <ellipse id="Ellipse_1133" data-name="Ellipse 1133" cx="7.248" cy="2.527" rx="7.248" ry="2.527" transform="translate(301.717 326.414) rotate(-53.51)" fill="#30242a"/>
    <ellipse id="Ellipse_1134" data-name="Ellipse 1134" cx="15.807" cy="2.791" rx="15.807" ry="2.791" transform="translate(257.78 363.709) rotate(-8.6)" fill="#30242a"/>
    <path id="Path_24" data-name="Path 24" d="M279.69,756.58v.023a5.844,5.844,0,0,1-4.77,10.62v.02c7.234,3.25,14.175,3.5,15.5.555S286.928,759.831,279.69,756.58Z" transform="translate(-11.478 -412.231)" fill="#ff7235"/>
    <path id="Path_25" data-name="Path 25" d="M314.52,682.673c-1.539-.4-3.541,1.929-5,5.533-1.761-4.377-4.314-7.307-6.035-6.739s-2.028,4.44-.836,9.005c-3.323-2.022-6.316-2.7-7.317-1.463-1.275,1.579,1.183,5.675,5.49,9.154a24.687,24.687,0,0,0,3.938,2.623,5.84,5.84,0,0,1,9.266-3.171,24.779,24.779,0,0,0,1.539-4.321C316.951,687.939,316.485,683.182,314.52,682.673Z" transform="translate(-24.918 -361.884)" fill="#ff7235"/>
    <path id="Path_26" data-name="Path 26" d="M414.024,732.618c-.476-1.52-3.512-1.982-7.343-1.321,2.781-3.809,3.918-7.525,2.527-8.685s-4.843.628-8.087,4.053c-.04-3.891-1.047-6.792-2.626-6.987-2.012-.248-4.192,4.007-4.866,9.5a24.746,24.746,0,0,0-.145,4.734,5.84,5.84,0,0,1,7.6,6.187,25.057,25.057,0,0,0,4.483-.991C410.839,737.464,414.628,734.554,414.024,732.618Z" transform="translate(-90.84 -387.513)" fill="#ff7235"/>
    <path id="Path_27" data-name="Path 27" d="M399.113,763.255a5.834,5.834,0,0,0-5.523-1.074c.188,2.613.849,4.625,1.843,5.355.928.859,3.075,1.146,5.748.832a5.83,5.83,0,0,0-2.068-5.114Z" transform="translate(-90.947 -415.795)" fill="#30242a"/>
    <path id="Path_28" data-name="Path 28" d="M328.382,727.02a5.837,5.837,0,0,0-3.832,4.119c2.312,1.222,4.367,1.718,5.523,1.268,1.219-.33,2.6-2.005,3.743-4.44A5.831,5.831,0,0,0,328.382,727.02Z" transform="translate(-44.713 -392.238)" fill="#30242a"/>
    <path id="Path_29" data-name="Path 29" d="M280.314,766.448a2.838,2.838,0,0,1,2.329-5.153,5.837,5.837,0,0,0-2.973-4.625l-4.78,10.614A5.843,5.843,0,0,0,280.314,766.448Z" transform="translate(-11.458 -412.292)" fill="#f5ebdd"/>
    <path id="Path_30" data-name="Path 30" d="M287.133,771.825a2.838,2.838,0,0,0,1.216,3.634,5.824,5.824,0,0,0,2.329-5.153A2.838,2.838,0,0,0,287.133,771.825Z" transform="translate(-19.492 -421.312)" fill="#4856df"/>
    <path id="Path_31" data-name="Path 31" d="M778.175,615.339H694.16l1.42-5.636h36.879L746.525,554.7a34.824,34.824,0,0,1,33.737-26.2h0a28.982,28.982,0,0,1,28.078,36.172L799.65,598.66A22.172,22.172,0,0,1,778.175,615.339Z" transform="translate(-292.227 -259.495)" fill="#ffb7d5"/>
    <rect id="Rectangle_3436" data-name="Rectangle 3436" width="5.966" height="53.544" transform="translate(402.583 413.868) rotate(-90)" fill="#a15842"/>
    <path id="Path_32" data-name="Path 32" d="M740.532,864.248,726.6,781.35H683.271l-13.927,82.9a2.752,2.752,0,0,0,2.715,3.2h0a2.755,2.755,0,0,0,2.689-2.167L692.99,781.35H716.9l18.235,83.935a2.752,2.752,0,0,0,2.689,2.167h0a2.752,2.752,0,0,0,2.709-3.2Z" transform="translate(-275.584 -428.819)" fill="#a15842"/>
    <rect id="Rectangle_3437" data-name="Rectangle 3437" width="5.966" height="53.544" transform="translate(446.941 413.868) rotate(-90)" fill="#ffbe21"/>
    <path id="Path_33" data-name="Path 33" d="M874.818,864.248l-13.94-82.9H817.561l-13.927,82.9a2.752,2.752,0,0,0,2.715,3.2h0a2.748,2.748,0,0,0,2.686-2.166L827.27,781.35h23.913l18.235,83.935a2.752,2.752,0,0,0,2.692,2.167h0a2.752,2.752,0,0,0,2.709-3.2Z" transform="translate(-365.513 -428.819)" fill="#ffbe21"/>
    <path id="Path_34" data-name="Path 34" d="M757.766,698.775,763.078,678h-35.2a31.088,31.088,0,0,0-30.117,23.38l-3.6,14.073h42.128a22.172,22.172,0,0,0,21.478-16.676Z" transform="translate(-292.227 -359.609)" fill="#ffb7d5"/>
    <line id="Line_4" data-name="Line 4" x2="44.695" transform="translate(404.222 349.657)" fill="none" stroke="#a15842" stroke-linecap="round" stroke-linejoin="round" stroke-width="4"/>
    <line id="Line_5" data-name="Line 5" y1="30.622" x2="7.832" transform="translate(440.39 318.827)" fill="none" stroke="#a15842" stroke-linecap="round" stroke-linejoin="round" stroke-width="4"/>
    <line id="Line_6" data-name="Line 6" x1="21.142" transform="translate(491.071 317.681)" fill="none" stroke="#a15842" stroke-linecap="round" stroke-linejoin="round" stroke-width="4"/>
    <line id="Line_7" data-name="Line 7" x1="27.088" transform="translate(489.089 302.815)" fill="none" stroke="#a15842" stroke-linecap="round" stroke-linejoin="round" stroke-width="4"/>
    <path id="Path_35" data-name="Path 35" d="M518.352,610.5s-26.5,7.218-37.761,12.85c-18.562,9.279-18.5,15.4-29.816,49.689-10.449,31.686-11.6,47.043-26.011,47.651-11,.463-14.611,4.063-16.395,9l43.542,20.659a2.164,2.164,0,0,0,2.824-.918h0a2.164,2.164,0,0,0-.816-2.907l-.915-.529a161.078,161.078,0,0,0,19.635-31.214L477.6,717.1s8-10.4,9.273-22.2c1.652-15.238.661-25.509,7.621-31.471l81.164-52.933Z" transform="translate(-100.844 -314.4)" fill="#ff7235"/>
    <path id="Path_36" data-name="Path 36" d="M445.05,928.176c.862-1.794,5.652-12.721,8.407-11.4,3.584,1.718-5.718,12.688-5.718,12.688Z" transform="translate(-125.408 -519.435)" fill="#30242a"/>
    <path id="Path_37" data-name="Path 37" d="M408.36,953.716,451.9,974.372a2.16,2.16,0,0,0,2.008-3.822l-.915-.529.093-.112L423.159,955.78a18.56,18.56,0,0,0,.938-3.839c4.479.776,13.544,1.612,13.59-2.124.05-3.482-9.851-2.084-13.468-1.1a14.748,14.748,0,0,0-.773-3.928C413.467,945.477,410.071,948.979,408.36,953.716Z" transform="translate(-100.838 -538.269)" fill="#30242a"/>
    <path id="Path_38" data-name="Path 38" d="M610.526,641.24c-2.084,1.041-3.931,2.042-5.586,3.046l-2.54,8.136,9.778-6.888,9.015,7.188-3.323-9.854,10.211-4.677-7.892-.991A98.324,98.324,0,0,0,610.526,641.24Z" transform="translate(-230.779 -332.287)" fill="#ffb7d5"/>
    <path id="Path_39" data-name="Path 39" d="M712.871,636.61l-.661,4.3,4.307-1.655Z" transform="translate(-304.315 -331.892)" fill="#ffb7d5"/>
    <path id="Path_40" data-name="Path 40" d="M602.061,701.79l-6.293,8.281-8.945-4.3,5.3,8.942-8.281,6.957,10.6-1.325,3.647,12.259,3.644-12.259,11.595-3.313-11.264-4.638Z" transform="translate(-218.35 -375.54)" fill="#ffb7d5"/>
    <path id="Path_41" data-name="Path 41" d="M516.987,857.175l.773-2.207,10.571-.562-8.589-5.847,3.825-9.16-8.651,5.768-1.652-1.784c-1.321,4.351-2.491,8.225-3.634,11.631h.053c.126-.373.251-.75.377-1.133Z" transform="translate(-168.655 -467.693)" fill="#ffb7d5"/>
    <path id="Path_42" data-name="Path 42" d="M479.191,886.56l-6.937-3.28c-.126.383-.251.76-.377,1.133-4.192,12.487-8.011,18.73-17.092,19.113-.446,0-.875.043-1.3.073a14.75,14.75,0,0,1,.773,3.928c3.634-.991,13.517-2.382,13.468,1.1-.053,3.736-9.111,2.9-13.59,2.124a18.561,18.561,0,0,1-.948,3.839l29.929,14.128a161.876,161.876,0,0,0,19.533-31.081Z" transform="translate(-130.859 -497.078)" fill="#eaa58b"/>
    <path id="Path_43" data-name="Path 43" d="M591.107,817.12l-.991,8.946-9.276-.33,7.951,5.966-2.973,10.6,7.958-6.96,7.152,4.77q.3-.948.545-1.919l-2.742-6.828,4.248-4.654c.069-.866.135-1.718.2-2.547l-7.419,1.239Z" transform="translate(-216.341 -452.773)" fill="#ffb7d5"/>
    <path id="Path_44" data-name="Path 44" d="M543.845,760.83c-.836,2.583-1.734,5.388-2.725,8.437l8.813.538Z" transform="translate(-189.742 -415.077)" fill="#ffb7d5"/>
    <path id="Path_45" data-name="Path 45" d="M643.58,977.367c.139-1.982.571-13.907,3.617-13.693,3.964.277-.644,13.9-.644,13.9Z" transform="translate(-258.356 -550.913)" fill="#30242a"/>
    <path id="Path_46" data-name="Path 46" d="M699.494,612s-33.129,6.144-51.351,13.762c-18.4,7.694-18.218,21.356-14.908,58.47,2.973,33.225,8.285,49.359-2.643,54.327-10.022,4.559-13.5,10.273-13.029,15.5H666.9a2.117,2.117,0,0,0,2.117-2.117h0a2.118,2.118,0,0,0-2.118-2.117h-.832c1.556-5.09,3.812-15.027,4.123-31.471h6.118s3.145-14.535-.33-27.5c-3.634-13.58-6.957-15.9-8.942-25.175h29.687a35.484,35.484,0,0,0,34.708-43.1,37.7,37.7,0,0,0-3.772-10.571Z" transform="translate(-240.906 -315.411)" fill="#ff7235"/>
    <path id="Path_47" data-name="Path 47" d="M768.567,670.7l-6.081,7.651-9.471-3.254,5.612,9.187-7.287,9.94,9.606-3.977,5.355,9.87.608-10.865,9.276-1.985-7.948-4.972Z" transform="translate(-330.519 -354.721)" fill="#ffb7d5"/>
    <path id="Path_48" data-name="Path 48" d="M760.042,849.48l5.616,9.187-7.287,9.94,9.606-3.964,3.561,6.564a63.186,63.186,0,0,0-.885-19.89l-1.136,1.43Z" transform="translate(-335.226 -474.443)" fill="#ffb7d5"/>
    <path id="Path_49" data-name="Path 49" d="M677.233,888.185l-.426-5.12,10.756-4.149-10.181-2.111,1.123-11.175-6.607,8.645-.2-.083c.634,5.335,1.189,10,1.5,14.029v-.036Z" transform="translate(-277.187 -485.258)" fill="#ffb7d5"/>
    <path id="Path_50" data-name="Path 50" d="M666.873,965.381h-.832c1.556-5.091,3.812-15.027,4.123-31.471H636.882v.03c.026.33.05.661.073.991v.092c.69,10.323-.436,16.362-6.4,19.074-10.022,4.559-13.5,10.273-13.029,15.5h49.349a2.117,2.117,0,1,0,0-4.235Z" transform="translate(-240.879 -530.983)" fill="#eaa58b"/>
    <path id="Path_51" data-name="Path 51" d="M853.348,614.59l-15.219,1.348,1.586,6.118-9.735,5.193,12.127,1.622,4.1,9.088,4.218-9.411,12.335-1.949-10.713-5.517Z" transform="translate(-383.181 -317.146)" fill="#ffb7d5"/>
    <path id="Path_52" data-name="Path 52" d="M668.577,695.877l3.634-11.595,10.6,1.652-8.282-7.287,5.946-6.957-10.931,3.964-1.747-3c-2.811,3.185-4.509,7.139-5.418,12.222l1.863.059Z" transform="translate(-270.945 -355.384)" fill="#ffb7d5"/>
    <path id="Path_53" data-name="Path 53" d="M753.546,634.8c-2.236.621-4.463,1.272-6.636,1.942l8.757,5.946Z" transform="translate(-327.552 -330.68)" fill="#ffb7d5"/>
    <path id="Path_54" data-name="Path 54" d="M691.7,777.586l-4.638-9.606-2.319,10.6-8.612-.661,7.948,6.957-4.968,11.595,8.625-8.04,7.148,8.242-2.19-12.46,7.287-9.606Z" transform="translate(-280.153 -419.865)" fill="#ffb7d5"/>
    <path id="Path_55" data-name="Path 55" d="M632.784,999.851c4.38-1.209,12.929-4.321,11.383-7.72-1.44-3.171-9.8,2.312-12.649,4.754a14.6,14.6,0,0,0-2.725-3.561c-8.648,4.4-11.684,9.735-11.231,14.637H666.9a2.117,2.117,0,0,0,2.117-2.118h0a2.117,2.117,0,0,0-2.117-2.117H633.567A18.774,18.774,0,0,0,632.784,999.851Z" transform="translate(-240.903 -569.327)" fill="#30242a"/>
    <line id="Line_8" data-name="Line 8" x1="8.529" y1="0.119" transform="translate(417.465 350.879)" fill="none" stroke="#a15842" stroke-linecap="round" stroke-miterlimit="10" stroke-width="4"/>
    <path id="Path_56" data-name="Path 56" d="M700.935,630.42a196.757,196.757,0,0,0-25.436,8c-15.262,6.392-17.736,16.884-16.253,41.487" transform="translate(-268.598 -327.747)" fill="none" stroke="#a15842" stroke-linecap="round" stroke-miterlimit="10" stroke-width="4"/>
    <rect id="Rectangle_3438" data-name="Rectangle 3438" width="8.113" height="137.892" transform="translate(536.366 300.741)" fill="#ffbe21"/>
    <line id="Line_9" data-name="Line 9" x1="8.113" transform="translate(536.366 302.637)" fill="none" stroke="#a15842" stroke-miterlimit="10" stroke-width="4"/>
    <path id="Path_57" data-name="Path 57" d="M737.808,310.562c-4.625-.661-15.219,4.311-15.569,14.138s8.424,12.985,9.827,13.689l20.359-3.161,1.4-22.463Z" transform="translate(-311.024 -113.51)" fill="#a15842"/>
    <circle id="Ellipse_1135" data-name="Ellipse 1135" cx="15.823" cy="15.823" r="15.823" transform="translate(446.928 141)" fill="#a15842"/>
    <path id="Path_58" data-name="Path 58" d="M822.534,189.117c.965.446-7.158-18.829-11.3-15.823C807.329,176.132,817.635,186.858,822.534,189.117Z" transform="translate(-370.047 -21.413)" fill="#30242a"/>
    <path id="Path_59" data-name="Path 59" d="M848.492,202.847c.885,1.057,21.611-6.194,18.743-10.376C864.494,188.448,847.607,201.787,848.492,202.847Z" transform="translate(-395.555 -33.964)" fill="#30242a"/>
    <path id="Path_60" data-name="Path 60" d="M672.617,268.1s13.914-11.595,4.955-24.514c-5.7-8.235-21.2-4.955-21.2-4.955.377-4.522,1.605-17.551-8.192-24.709s-22.228-3.389-26.757,2.26-3.389,16.2-4.9,23.738-.5,12.658,4.143,15.07c4.225,2.193,9.2.869,9.2.869l-.529,7.951s-9.58.36-15.45,2.484c-14.145,5.12-39,40.235-39,40.235-15.569-.661-30.147-1.321-30.147-1.321l7.621,22.529s19.212,6.293,33.126,2.643c14.115-3.7,27.5-23.52,27.5-23.52l4.625,13.25-7.951,22.2H678.9L667.3,321.763C669.307,303.549,672.617,268.1,672.617,268.1Z" transform="translate(-192.166 -46.204)" fill="#eaa58b"/>
    <path id="Path_61" data-name="Path 61" d="M650.368,370.4,632.2,403.345l-7.433-31.788a49.27,49.27,0,0,0-10.852,2.141c-14.178,5.133-39.029,40.248-39.029,40.248-15.569-.661-30.147-1.321-30.147-1.321l7.621,22.529s19.212,6.293,33.126,2.643c14.115-3.7,27.5-23.52,27.5-23.52l4.625,13.25-7.951,22.2H678.9L667.3,429.183c1.982-18.221,5.285-53.67,5.285-53.67a32.129,32.129,0,0,0-9.937-3.964C658.7,370.658,654.349,371.19,650.368,370.4Z" transform="translate(-192.166 -153.621)" fill="#4756df"/>
    <path id="Path_62" data-name="Path 62" d="M547.512,511.5h57.373l-13.045-41.2a5.989,5.989,0,0,0-5.711-4.185H537.641a5.989,5.989,0,0,0-5.711,7.8l10.782,34.071A5.034,5.034,0,0,0,547.512,511.5Z" transform="translate(-183.4 -217.721)" fill="#30242a"/>
    <path id="Path_63" data-name="Path 63" d="M605.292,521.59c1.523-2.081,8.43,3.416,8.939,3.868.264-.453,3.862-5.946,6.5-3.868,2.289,1.8-2.742,9.861-4.08,11.915a.6.6,0,0,1-.889,0C613.319,531.45,603.971,523.393,605.292,521.59Z" transform="translate(-232.631 -254.553)" fill="#a15842"/>
    <ellipse id="Ellipse_1136" data-name="Ellipse 1136" cx="1.093" cy="3.346" rx="1.093" ry="3.346" transform="translate(377.996 262.366) rotate(-17.3)" fill="#a15842"/>
    <path id="Path_64" data-name="Path 64" d="M659.9,589.443a3.564,3.564,0,0,1-3.4,4.625H569.217a5.034,5.034,0,0,1-4.8-3.511l-.357-1.126Z" transform="translate(-205.104 -300.297)" fill="#30242a"/>
    <rect id="Rectangle_3439" data-name="Rectangle 3439" width="255.75" height="8.282" transform="translate(302.709 293.784)" fill="#ffbe21"/>
    <path id="Path_65" data-name="Path 65" d="M893.1,698.775,898.41,678H867.424a31.084,31.084,0,0,0-30.113,23.38l-3.6,14.074h37.906A22.175,22.175,0,0,0,893.1,698.776Z" transform="translate(-385.679 -359.609)" fill="#ffb7d5"/>
    <line id="Line_10" data-name="Line 10" x1="1.226" y2="5.18" transform="translate(447.539 350.397)" fill="none" stroke="#a15842" stroke-linecap="round" stroke-linejoin="round" stroke-width="4"/>
    <path id="Path_66" data-name="Path 66" d="M524.661,501.83c-3.855,1.926-5.781,5.137-5.781,7.386,0,3.284,3.343,3.9,3.343,3.9s-2.494,3.921,1.843,5.761c0,0,0,4.037,4.04,4.037,0,0-.535,3.148,3.68,3.445s8.552-1.9,8.919-3.326c.42-1.682-.713-3.089-3.772-3.535,0,0,4.129-1.929,3.475-4.364s-3.445-2.378-3.445-2.378,2.672-1.6,1.245-3.964a3.715,3.715,0,0,0-4.156-1.543,2.759,2.759,0,0,0-.535-2.91c-1.487-1.486-7.879.39-7.879.39Z" transform="translate(-174.849 -241.635)" fill="#eaa58a"/>
    <path id="Path_67" data-name="Path 67" d="M546.9,558.764a48.177,48.177,0,0,0,10.062-3.634" transform="translate(-193.613 -277.328)" fill="none" stroke="#a15842" stroke-linecap="round" stroke-miterlimit="10" stroke-width="4"/>
    <path id="Path_68" data-name="Path 68" d="M534.55,541.239a51.532,51.532,0,0,0,13.669-5.989" transform="translate(-185.342 -264.015)" fill="none" stroke="#a15842" stroke-linecap="round" stroke-miterlimit="10" stroke-width="4"/>
    <path id="Path_69" data-name="Path 69" d="M528,525.145a42.677,42.677,0,0,0,12.5-6.055" transform="translate(-180.956 -253.193)" fill="none" stroke="#a15842" stroke-linecap="round" stroke-miterlimit="10" stroke-width="4"/>
    <path id="Path_70" data-name="Path 70" d="M826.434,243.586c-5.7-8.235-21.2-4.955-21.2-4.955.377-4.522,1.605-17.551-8.192-24.709s-22.228-3.389-26.757,2.26c-1.843,2.312-2.745,5.424-3.27,8.82a23.537,23.537,0,0,0,7.416-.529c6.029,6.782,11.43,7.859,11.43,7.859,4.218-4.218,11.618-4.08,12.82,2.312,1.249,6.636-9.352,9.619-9.352,9.619s-.991,11.925,4.294,16.233A12.411,12.411,0,0,0,799.2,263c3.964.79,8.328.258,12.312,1.143a32.127,32.127,0,0,1,9.937,3.964,25.43,25.43,0,0,0,3.3-3.521C828.225,260.175,832.38,252.175,826.434,243.586Z" transform="translate(-341.012 -46.204)" fill="#a15842"/>
    <path id="Path_71" data-name="Path 71" d="M794.4,246.5a16.872,16.872,0,0,1-6.957,3.3" transform="translate(-354.694 -70.649)" fill="none" stroke="#eaa58b" stroke-linecap="round" stroke-miterlimit="10" stroke-width="4"/>
    <path id="Path_72" data-name="Path 72" d="M802.09,347.062a24.617,24.617,0,0,0,4.43-1.982" transform="translate(-364.504 -136.665)" fill="none" stroke="#a15842" stroke-linecap="round" stroke-miterlimit="10" stroke-width="4"/>
    <line id="Line_11" data-name="Line 11" y1="1.883" x2="3.013" transform="translate(448.718 189.513)" fill="none" stroke="#a15842" stroke-linecap="round" stroke-miterlimit="10" stroke-width="4"/>
    <path id="Path_73" data-name="Path 73" d="M783.46,318.087c.624.387,2.973.687,3.9-1.107" transform="translate(-352.028 -117.847)" fill="none" stroke="#a15842" stroke-linecap="round" stroke-miterlimit="10" stroke-width="4"/>
    <circle id="Ellipse_1137" data-name="Ellipse 1137" cx="1.13" cy="1.13" r="1.13" transform="translate(436.44 189.503)" fill="#30242a"/>
    <circle id="Ellipse_1138" data-name="Ellipse 1138" cx="1.13" cy="1.13" r="1.13" transform="translate(427.075 188.007)" fill="#30242a"/>
    <path id="Path_74" data-name="Path 74" d="M782.647,299.93a3.671,3.671,0,0,0-.291,1.741,1.9,1.9,0,0,0,.773.77" transform="translate(-351.262 -106.43)" fill="none" stroke="#a15842" stroke-linecap="round" stroke-miterlimit="10" stroke-width="4"/>
    <circle id="Ellipse_1139" data-name="Ellipse 1139" cx="3.957" cy="3.957" r="3.957" transform="translate(446.178 194.551)" fill="#f5ebdd"/>
    <ellipse id="Ellipse_1140" data-name="Ellipse 1140" cx="6.491" cy="5.844" rx="6.491" ry="5.844" transform="translate(418.385 193.912) rotate(-78.99)" fill="none" stroke="#30242a" stroke-linecap="round" stroke-miterlimit="10" stroke-width="4"/>
    <ellipse id="Ellipse_1141" data-name="Ellipse 1141" cx="6.491" cy="5.844" rx="6.491" ry="5.844" transform="translate(432.738 195.672) rotate(-78.99)" fill="none" stroke="#30242a" stroke-linecap="round" stroke-miterlimit="10" stroke-width="4"/>
    <line id="Line_12" data-name="Line 12" x2="2.283" y2="0.244" transform="translate(431.369 189.239)" fill="none" stroke="#30242a" stroke-linecap="round" stroke-miterlimit="10" stroke-width="4"/>
    <line id="Line_13" data-name="Line 13" x1="0.657" y2="4.228" transform="translate(464.317 192.863)" fill="none" stroke="#30242a" stroke-linecap="round" stroke-miterlimit="10" stroke-width="4"/>
    <line id="Line_14" data-name="Line 14" x2="3.198" y2="9.306" transform="translate(417.178 252.043)" fill="none" stroke="#30242a" stroke-linecap="round" stroke-linejoin="round" stroke-width="4"/>
    <line id="Line_15" data-name="Line 15" x1="8.407" transform="translate(425.664 273.244)" fill="none" stroke="#30242a" stroke-linecap="round" stroke-linejoin="round" stroke-width="4"/>
    <path id="Path_75" data-name="Path 75" d="M811.51,469.13l2.649,12.919v11.925" transform="translate(-370.812 -219.737)" fill="none" stroke="#30242a" stroke-linecap="round" stroke-linejoin="round" stroke-width="4"/>
    <path id="Path_76" data-name="Path 76" d="M756.282,379.51l5.031,11.383-5.963-.661,21.2,31.8" transform="translate(-333.204 -159.721)" fill="none" stroke="#30242a" stroke-linecap="round" stroke-linejoin="round" stroke-width="4"/>
    <path id="Path_77" data-name="Path 77" d="M846.264,375.41l-8.539,12.077,7.951-.664L816.52,412.662" transform="translate(-374.167 -156.976)" fill="none" stroke="#30242a" stroke-linecap="round" stroke-linejoin="round" stroke-width="4"/>
    <line id="Line_16" data-name="Line 16" x1="6.352" y1="8.873" transform="translate(470.183 250.057)" fill="none" stroke="#30242a" stroke-linecap="round" stroke-linejoin="round" stroke-width="4"/>
    <path id="Path_78" data-name="Path 78" d="M915.068,585.616c-3.459-1.153-9.666-3.379-13.408-5.616" transform="translate(-431.183 -293.982)" fill="none" stroke="#30242a" stroke-linecap="round" stroke-linejoin="round" stroke-width="4"/>
    <circle id="Ellipse_1142" data-name="Ellipse 1142" cx="6.498" cy="6.498" r="6.498" transform="translate(381.987 196.44)" fill="#ffb7d5"/>
    <rect id="Rectangle_3440" data-name="Rectangle 3440" width="9.23" height="3.409" rx="1.705" transform="translate(364.227 171.245) rotate(50.33)" fill="#4756df"/>
    <path id="Path_79" data-name="Path 79" d="M466.737,257.692l-3.806-4.592-68.4,56.719a2.924,2.924,0,0,0-.383,4.116l.076.092a2.92,2.92,0,0,0,4.113.383l21.386-17.739v62.245h5.969v-67.2Z" transform="translate(-90.868 -75.069)" fill="#3ec1f3"/>
    <path id="Path_80" data-name="Path 80" d="M581.89,271l1.906,2.312a8.181,8.181,0,0,1,1.486,2.715" transform="translate(-217.044 -87.056)" fill="none" stroke="#4756df" stroke-miterlimit="10" stroke-width="4"/>
    <circle id="Ellipse_1143" data-name="Ellipse 1143" cx="7.786" cy="7.786" r="7.786" transform="translate(324.049 207.408)" fill="#4756df"/>
    <circle id="Ellipse_1144" data-name="Ellipse 1144" cx="2.993" cy="2.993" r="2.993" transform="translate(328.842 212.201)" fill="#3ec1f3"/>
    <line id="Line_17" data-name="Line 17" x1="9.96" y2="8.232" transform="translate(383.86 199.248)" fill="none" stroke="#a15842" stroke-miterlimit="10" stroke-width="4"/>
    <path id="Path_81" data-name="Path 81" d="M594.543,248.06a8.2,8.2,0,0,1-5.358-2.914l-2.643-3.194a5.517,5.517,0,0,0-7.763-.723h0a5.51,5.51,0,0,0-.723,7.76l2.643,3.2a8.2,8.2,0,0,1,1.86,5.788l-.661,9.659a22.1,22.1,0,0,0,3.422,13.425l.846,1.321L617.855,256.1l-1.136-1.067a22.093,22.093,0,0,0-12.553-5.85Z" transform="translate(-213.627 -66.27)" fill="#3ec1f3"/>
    <path id="Path_82" data-name="Path 82" d="M449.354,573.43h-5.969l-8.823,2.4a7.806,7.806,0,0,0-5.751,7.532h35.115a7.806,7.806,0,0,0-5.755-7.532Z" transform="translate(-114.532 -289.582)" fill="#3ec1f3"/>
    <line id="Line_18" data-name="Line 18" x1="29" y2="23.969" transform="translate(369.216 185.156)" fill="none" stroke="#4756df" stroke-linecap="round" stroke-miterlimit="10" stroke-width="4"/>
    <line id="Line_19" data-name="Line 19" x2="6.115" transform="translate(328.707 283.164)" fill="none" stroke="#4756df" stroke-linecap="round" stroke-miterlimit="10" stroke-width="4"/>
    <line id="Line_20" data-name="Line 20" x2="32.598" transform="translate(315.437 289.655)" fill="none" stroke="#4756df" stroke-linecap="round" stroke-miterlimit="10" stroke-width="4"/>
    <path id="Path_83" data-name="Path 83" d="M981.651,792.737c.661-5.616.33-18.221-6.957-27.828s2.643-5.616,5.616-2.973c4.757,4.228,8.945,8.281,12.589,21.865Z" transform="translate(-478.338 -413.732)" fill="#30242a"/>
    <path id="Path_84" data-name="Path 84" d="M1267.022,1025.72h38.891v-1.272a6.762,6.762,0,0,0-6.762-6.759h-32.33Z" transform="translate(-675.717 -587.087)" fill="#a15842"/>
    <path id="Path_85" data-name="Path 85" d="M978.7,858.823l8.2,37.13h15.242v-2.312a5.632,5.632,0,0,0-5.616-5.632h0s7.618-5.712,12.256-11.344c0,0,7.951,9.689,19.216,8.031l.816,3.964a9.14,9.14,0,0,0,8.936,7.294h36.942c16.385,0,24.445-2.5,24.907-11.829a2.643,2.643,0,0,0-2.643-2.748h-10.313a2.841,2.841,0,0,1-2.217-1.06l-4.39-5.447a10.822,10.822,0,0,0-11.089-3.69l-8.83,2.256s-15.645-22.483-29.816-38.1c-13.544-14.908-39.019-16.517-49.055,2.9A30.519,30.519,0,0,0,978.7,858.823Z" transform="translate(-482.264 -457.32)" fill="#a15842"/>
    <path id="Path_86" data-name="Path 86" d="M1236.965,1025.72v-1.272a6.759,6.759,0,0,0-6.762-6.759h-4.5" transform="translate(-648.18 -587.087)" fill="none" stroke="#30242a" stroke-miterlimit="10" stroke-width="4"/>
    <path id="Path_87" data-name="Path 87" d="M1073.17,905.3c2.313-2.752,10.2-12.883,9.639-22.793-.6-10.6-6.957-16.233-6.957-16.233" transform="translate(-546.037 -485.687)" fill="none" stroke="#30242a" stroke-linecap="round" stroke-miterlimit="10" stroke-width="4"/>
    <path id="Path_88" data-name="Path 88" d="M1123.41,965.54s.423,7.839,1.272,13.692" transform="translate(-579.68 -552.164)" fill="none" stroke="#30242a" stroke-linecap="round" stroke-miterlimit="10" stroke-width="4"/>
    <line id="Line_21" data-name="Line 21" y2="3.062" transform="translate(511.928 435.241)" fill="none" stroke="#30242a" stroke-linecap="round" stroke-miterlimit="10" stroke-width="4"/>
    <line id="Line_22" data-name="Line 22" y2="3.062" transform="translate(515.572 435.241)" fill="none" stroke="#30242a" stroke-linecap="round" stroke-miterlimit="10" stroke-width="4"/>
    <line id="Line_23" data-name="Line 23" y2="3.062" transform="translate(581.497 435.241)" fill="none" stroke="#30242a" stroke-linecap="round" stroke-miterlimit="10" stroke-width="4"/>
    <line id="Line_24" data-name="Line 24" y2="3.062" transform="translate(585.141 435.241)" fill="none" stroke="#30242a" stroke-linecap="round" stroke-miterlimit="10" stroke-width="4"/>
    <circle id="Ellipse_1145" data-name="Ellipse 1145" cx="1.49" cy="1.49" r="1.49" transform="translate(593.422 423.316)" fill="#30242a"/>
    <path id="Path_89" data-name="Path 89" d="M1235.612,966.83v-.04l-8.942,2.312,8.83-2.256Z" transform="translate(-648.83 -553.001)" fill="#30242a"/>
    <path id="Path_90" data-name="Path 90" d="M1175.03,983.88c-2.59,1.321-6.25,3.908-5.946,7.826h14.383l3.023-4.767a5.48,5.48,0,0,1,4.625-2.547h.961L1197,967.056l-.073-.076-8.83,2.256-8.453,10.828A13.93,13.93,0,0,1,1175.03,983.88Z" transform="translate(-610.255 -553.128)" fill="#30242a"/>
    <path id="Path_91" data-name="Path 91" d="M1115.814,855.972s-4,13.848,8.919,19.077a16.035,16.035,0,0,0,15.767-1.982c-5.7-7.6-13.253-17.27-20.421-25.172a34.735,34.735,0,0,0-6.019-5.256C1112.1,845.3,1109.964,851.889,1115.814,855.972Z" transform="translate(-572.045 -469.863)" fill="#eaa58b"/>
    <circle id="Ellipse_1146" data-name="Ellipse 1146" cx="5.467" cy="5.467" r="5.467" transform="translate(505.302 385.218)" fill="#eaa58b"/>
    <path id="Path_92" data-name="Path 92" d="M1334.105,997.87h-1.982a3.819,3.819,0,0,0,3.736,4.559,3.674,3.674,0,0,0,.694-.066,14.223,14.223,0,0,0,.195-1.744,2.643,2.643,0,0,0-2.643-2.749Z" transform="translate(-719.4 -573.814)" fill="#30242a"/>
    <line id="Line_25" data-name="Line 25" y2="2.986" transform="translate(622.574 435.241)" fill="none" stroke="#30242a" stroke-linecap="round" stroke-miterlimit="10" stroke-width="4"/>
    <line id="Line_26" data-name="Line 26" y2="2.986" transform="translate(626.218 435.241)" fill="none" stroke="#30242a" stroke-linecap="round" stroke-miterlimit="10" stroke-width="4"/>
    <path id="Path_93" data-name="Path 93" d="M1301.57,1025.237c8.1-.816,12.929-3.009,14.683-7.677" transform="translate(-698.988 -587)" fill="none" stroke="#30242a" stroke-linecap="round" stroke-linejoin="round" stroke-width="4"/>
    <path id="Path_94" data-name="Path 94" d="M817.36,514.037A78.393,78.393,0,0,0,805.1,513.9c-5.84.479-13.693,2.008-16.847,3.535s-15.235,6.914-11.981,8.721c2.973,1.652,9.21-.832,9.21-.832s-6.224,5.721-7.294,8.116,2.468,3.739,2.468,3.739c.932,4.09,5.1,2.332,5.1,2.332,2.626,5.586,16.814-6.518,16.814-6.518a34.892,34.892,0,0,0,10.118-.426s1.8,1.008,4.681,2.408Z" transform="translate(-346.846 -249.6)" fill="#eaa58a"/>
    <path id="Path_95" data-name="Path 95" d="M937.215,456.453c26.5-12.589-11.915-59.626-25.509-70.563L904.089,416.7l9.606,13.25c-4.208-.727-8.232-1.226-11.925-1.52v20.94C910.18,453.46,927.853,460.913,937.215,456.453Z" transform="translate(-431.256 -163.994)" fill="#4756df"/>
    <path id="Path_96" data-name="Path 96" d="M801.43,535.727c2.352-1.946,6.257-5.09,9.17-6.987" transform="translate(-364.062 -259.655)" fill="none" stroke="#a15842" stroke-linecap="round" stroke-miterlimit="10" stroke-width="4"/>
    <path id="Path_97" data-name="Path 97" d="M806.5,542.81a104.1,104.1,0,0,0-15.988,13.306" transform="translate(-356.75 -269.077)" fill="none" stroke="#a15842" stroke-linecap="round" stroke-miterlimit="10" stroke-width="4"/>
    <path id="Path_98" data-name="Path 98" d="M820.638,557.82a126.285,126.285,0,0,0-13.5,11.291" transform="translate(-367.886 -279.129)" fill="none" stroke="#a15842" stroke-linecap="round" stroke-miterlimit="10" stroke-width="4"/>
    <path id="Path_99" data-name="Path 99" d="M1063.608,547.053a1.893,1.893,0,0,1,1.889,1.889v.281a1.893,1.893,0,0,1-1.889,1.889h-9.735v-4.06h9.735m0-2.643h-12.021a.357.357,0,0,0-.357.36v8.638a.357.357,0,0,0,.357.357h12.021a4.532,4.532,0,0,0,4.532-4.542v-.291a4.532,4.532,0,0,0-4.532-4.532Z" transform="translate(-531.344 -270.142)" fill="#3ec1f3"/>
    <path id="Path_100" data-name="Path 100" d="M1015.523,524.216a17.229,17.229,0,0,1-14.393-7.846l6.607,28.786h15.552l6.607-28.786A16.9,16.9,0,0,1,1015.523,524.216Z" transform="translate(-497.794 -251.371)" fill="#3ec1f3"/>
    <path id="Path_101" data-name="Path 101" d="M1015.523,524.216a16.9,16.9,0,0,0,14.393-7.846H1001.13A17.228,17.228,0,0,0,1015.523,524.216Z" transform="translate(-497.794 -251.371)" fill="#30242a"/>
  </g>
</svg>
